HIERARCHY
ROOT RootJoint
{
    OFFSET   0.000000   0.000000   0.000000
    CHANNELS 6 Xposition Yposition Zposition Xrotation Yrotation Zrotation
    JOINT lHip
    {
        OFFSET   0.100000  -0.051395   0.000000
        CHANNELS 3 Xrotation Yrotation Zrotation
        JOINT lKnee
        {
            OFFSET   0.000000  -0.410000   0.000000
            CHANNELS 3 Xrotation Yrotation Zrotation
            JOINT lAnkle
            {
                OFFSET   0.000000  -0.390000   0.000000
                CHANNELS 3 Xrotation Yrotation Zrotation
                JOINT lToeJoint
                {
                    OFFSET   0.000000  -0.050000   0.130000
                    CHANNELS 3 Xrotation Yrotation Zrotation
                    End Site
                    {
                        OFFSET   0.010000   0.002000   0.060000
                    }
                }
            }
        }
    }
    JOINT rHip
    {
        OFFSET  -0.100000  -0.051395   0.000000
        CHANNELS 3 Xrotation Yrotation Zrotation
        JOINT rKnee
        {
            OFFSET   0.000000  -0.410000   0.000000
            CHANNELS 3 Xrotation Yrotation Zrotation
            JOINT rAnkle
            {
                OFFSET   0.000000  -0.390000   0.000000
                CHANNELS 3 Xrotation Yrotation Zrotation
                JOINT rToeJoint
                {
                    OFFSET   0.000000  -0.050000   0.130000
                    CHANNELS 3 Xrotation Yrotation Zrotation
                    End Site
                    {
                        OFFSET  -0.010000   0.002000   0.060000
                    }
                }
            }
        }
    }
    JOINT pelvis_lowerback
    {
        OFFSET   0.000000   0.093605   0.000000
        CHANNELS 3 Xrotation Yrotation Zrotation
        JOINT lowerback_torso
        {
            OFFSET   0.000000   0.100000   0.000000
            CHANNELS 3 Xrotation Yrotation Zrotation
            JOINT torso_head
            {
                OFFSET   0.000000   0.282350   0.000000
                CHANNELS 3 Xrotation Yrotation Zrotation
                End Site
                {
                    OFFSET   0.000000   0.192650   0.000000
                }
            }
            JOINT lTorso_Clavicle
            {
                OFFSET   0.001000   0.157500   0.000000
                CHANNELS 3 Xrotation Yrotation Zrotation
                JOINT lShoulder
                {
                    OFFSET   0.117647   0.000000   0.000000
                    CHANNELS 3 Xrotation Yrotation Zrotation
                    JOINT lElbow
                    {
                        OFFSET   0.245000   0.000000   0.000000
                        CHANNELS 3 Xrotation Yrotation Zrotation
                        JOINT lWrist
                        {
                            OFFSET   0.240000   0.000000   0.000000
                            CHANNELS 3 Xrotation Yrotation Zrotation
                            End Site
                            {
                                OFFSET   0.116353  -0.002500   0.000000
                            }
                        }
                    }
                }
            }
            JOINT rTorso_Clavicle
            {
                OFFSET  -0.001000   0.157500   0.000000
                CHANNELS 3 Xrotation Yrotation Zrotation
                JOINT rShoulder
                {
                    OFFSET  -0.117647   0.000000   0.000000
                    CHANNELS 3 Xrotation Yrotation Zrotation
                    JOINT rElbow
                    {
                        OFFSET  -0.245000   0.000000   0.000000
                        CHANNELS 3 Xrotation Yrotation Zrotation
                        JOINT rWrist
                        {
                            OFFSET  -0.240000   0.000000   0.000000
                            CHANNELS 3 Xrotation Yrotation Zrotation
                            End Site
                            {
                                OFFSET  -0.116353  -0.002500   0.000000
                            }
                        }
                    }
                }
            }
        }
    }
}
MOTION
Frames: 17
Frame Time:   0.010000
  0.504073   0.504787   0.505594  51.044283  86.729625  38.555215  31.595634  80.199891  48.549683  57.707083  79.032130  27.673987  39.014766  78.834393  42.564490  40.644439  78.710629  41.115316  32.584043  77.175063  49.477673  58.348349  78.524359  25.451706  40.444013  78.366898  41.755645  40.882976  78.677588  41.031943  41.514302  78.717415  40.579125  43.991693  78.632807  38.551871  46.236376  78.869349  37.019975  49.301201  78.410195  31.636711  74.507076  75.241403   7.876872  38.470682  75.845342  46.529562  43.094663  78.732883  39.051089  31.919777  78.916263  51.168687  30.581524  81.964278  56.968965  41.053829  82.091293  38.779243  46.418383  78.957758  35.761084
  0.504121   0.502461   0.503083  48.372853  83.999335  40.433844  29.881294  79.603677  49.890912  55.729564  78.758047  29.246813  40.655919  78.346279  40.669167  40.322276  78.404804  41.397706  35.795824  77.207045  46.202219  57.321502  78.705706  26.378624  39.070292  78.369047  42.960810  40.301660  78.155239  41.508120  42.169966  78.348053  39.657442  44.192922  78.457686  38.102731  47.405289  78.975097  35.566832  49.251875  78.011457  31.295790  75.560444  75.458022   6.282675  39.155958  76.277018  45.096378  44.449915  78.671700  37.197373  31.807364  78.617274  50.983517  30.230437  81.444648  56.932036  42.330507  81.780913  37.297852  46.005602  78.884294  35.901204
  0.502022   0.504127   0.500618  46.139532  84.752726  42.752399  29.915057  79.646194  49.779720  54.239489  78.894935  30.539922  39.021061  78.529750  42.253787  40.388684  78.232636  41.044242  34.271658  76.899775  47.430897  58.736809  78.014540  25.261292  41.358183  78.321778  40.697358  41.098628  78.368281  40.572089  41.695608  78.392455  40.143426  43.461271  78.244197  38.942699  46.953402  78.428308  36.225576  49.189602  78.022285  31.387440  75.478135  75.454921   6.279806  39.855529  75.573606  44.514375  43.068454  78.359311  38.594684  32.119960  78.255719  50.616542  33.504671  81.368899  53.959213  39.946674  81.812250  39.701730  44.937843  78.490111  37.165446
  0.501229   0.501116   0.503241  51.053634  86.599518  38.371160  31.547398  79.473143  48.717161  55.693561  78.534468  28.933990  39.029750  78.026500  41.969648  41.402984  78.269953  40.124141  32.890126  76.775252  48.398651  60.044351  78.167150  24.003714  38.405997  78.008925  43.941918  40.787655  78.248909  40.803644  41.485543  78.388058  40.190792  43.269729  78.238057  39.238877  47.630056  79.041725  34.989904  48.277385  78.025679  32.225356  75.535712  74.798347   6.407384  39.548770  75.478951  44.946299  43.866731  78.560862  37.872089  32.454582  78.385474  50.372023  31.079385  81.560078  56.306141  41.636329  81.643186  37.636685  47.465624  78.716222  34.148425
  0.500799   0.499811   0.499599  49.485900  88.191305  39.553807  32.268055  79.519021  47.273308  55.736438  78.518038  29.103582  39.474269  78.229757  41.681742  41.023308  77.959824  40.472888  33.110053  76.712183  48.395303  58.766962  78.096915  24.757301  40.097893  77.976861  41.977418  40.785745  77.917113  40.685219  41.559289  77.777599  40.272936  44.179820  78.095142  37.930223  48.641025  78.903146  33.654547  48.145824  77.635700  32.084535  72.364125  75.398958   9.395819  38.778276  75.653926  45.354790  44.976636  78.432843  36.343838  33.115883  78.284667  49.503279  30.672723  81.187532  56.479889  41.813842  81.795005  37.528274  47.007322  78.485106  34.371444
  0.506248   0.503940   0.501195  43.826491  84.644513  44.646459  31.730060  80.007595  48.029157  55.843678  78.958553  29.627682  42.591915  78.625218  38.773210  40.694320  78.432266  41.297048  34.419932  77.387999  47.428809  61.643026  78.426451  22.136666  39.952982  78.381489  41.898054  40.423351  78.647018  41.365868  40.842219  78.395296  41.209322  43.512747  78.515463  38.762421  49.374034  79.111840  33.898687  49.065638  78.227588  31.823487  75.560816  75.550168   6.357594  40.153599  76.295511  44.278667  45.921295  78.751573  35.801588  34.417483  79.084568  48.312643  32.115252  81.998734  54.682697  40.512555  82.026405  39.082516  46.080273  79.106314  35.577879
  0.507941   0.505174   0.505236  46.092707  87.007671  42.033768  28.724632  79.658095  51.052648  54.854516  79.189224  30.332818  39.981316  78.624622  41.608986  40.106679  78.610740  41.816750  37.442016  77.731820  44.334019  56.772511  78.747661  26.919657  42.779974  78.353792  39.677909  40.609090  78.497716  41.203331  43.390221  78.555394  38.156123  42.347313  78.818074  39.592035  47.370218  79.451265  35.500560  48.765579  78.580708  31.834105  76.351799  75.035350   6.044580  38.717661  75.719294  46.165795  46.523901  79.093026  35.311497  32.788694  78.760727  50.178208  31.670341  81.678535  55.721645  40.963623  81.939253  38.600435  46.598685  79.327677  35.667077
  0.504249   0.502865   0.502392  48.078692  86.567385  40.149866  29.376649  79.444787  50.184294  56.954797  78.616950  28.015067  40.362277  78.065160  41.208907  40.304541  78.252347  41.254879  34.737368  77.178918  47.089442  57.998635  78.399316  25.672598  39.572764  78.275322  42.354997  41.195198  78.251607  40.357789  41.419988  78.292618  40.335969  42.841970  78.169994  39.486689  48.087684  79.145500  34.272855  47.944664  77.986248  32.740891  73.358668  75.509031   8.619202  39.805202  75.455857  44.652313  45.512879  78.465790  36.314996  33.981278  78.328219  48.876482  32.265870  81.456789  54.800106  41.493734  81.674934  38.084184  45.878839  78.732051  35.867592
  0.503554   0.503555   0.502430  49.867424  87.096635  37.545058  30.835116  79.737869  49.742029  56.764272  78.748492  28.470510  40.056704  78.353707  41.521833  40.829784  78.587731  40.992077  33.636356  77.681714  47.966506  56.089514  79.056733  27.557882  40.178414  78.563982  42.145236  41.174203  78.375635  40.642825  41.381870  78.597699  40.600895  43.091032  78.320770  39.808331  46.319957  78.727416  36.794767  48.246341  78.251236  32.583650  73.100213  75.783689   9.203010  39.407495  75.627492  45.234311  43.871995  78.523291  38.388727  33.043678  78.592429  50.044557  31.636786  81.598203  55.552505  41.878268  81.958207  37.889343  45.770140  78.933054  36.392736
  0.500715   0.502750   0.500231  50.364716  85.286019  37.820409  31.389745  79.725318  48.402578  53.800322  78.746810  30.855980  38.930146  78.113361  42.168115  40.884632  78.016536  40.684390  34.125694  77.024814  47.273116  59.505888  78.135512  24.223103  39.876498  77.745164  42.194218  41.224610  78.012681  40.200322  41.888012  78.056007  39.972342  43.229742  78.040334  38.859940  48.923756  78.737308  33.874216  47.869990  77.744515  32.507031  75.359469  74.812457   6.469822  39.120977  75.405876  45.173057  43.820129  78.329067  37.879586  32.010362  78.236562  50.715567  29.946469  81.160377  57.419919  41.702263  81.533675  37.779504  44.400571  78.359261  37.365775
  0.501757   0.503375   0.502504  48.367391  84.748353  40.260256  29.050239  79.704775  50.676700  56.672051  78.789765  28.338771  39.304713  78.476787  42.052924  40.662674  78.290809  40.954524  33.081394  77.004172  48.499607  59.523955  78.406441  24.228755  39.980593  78.163038  42.588662  41.091278  78.298889  40.586285  41.349138  78.349804  40.563564  43.738842  78.008055  38.846846  47.909345  79.041927  34.852608  48.102455  77.953460  32.456127  72.247207  75.134295  10.231821  39.490086  75.911115  44.828808  44.312107  78.622698  37.612559  32.444613  78.452408  50.548826  31.007549  81.530706  56.236736  40.041825  81.545146  39.808515  45.895712  78.653300  35.965555
  0.499181   0.500916   0.499875  44.712345  85.954454  44.047642  30.752907  79.314666  48.845868  56.044186  78.506701  28.642958  38.070841  78.162383  42.906301  40.701601  78.121947  40.703987  34.276206  76.732144  46.797712  60.154681  78.000188  23.548432  40.527849  78.036165  41.336044  40.900386  78.049571  40.637947  41.155520  78.174386  40.400439  44.781663  78.027326  37.255735  46.781313  78.554449  36.021567  47.610900  77.662142  32.916255  72.476333  75.006842   9.703309  40.301616  75.573687  43.790643  46.230661  78.325837  35.294935  32.373898  78.138940  50.320570  31.141050  81.351352  56.015315  41.490156  81.651453  37.777609  46.033895  78.358751  35.689618
  0.504858   0.505074   0.504569  49.014336  85.828985  39.578608  31.427581  79.825384  48.596895  57.032156  78.804414  28.359407  39.447421  78.442231  42.095774  40.366878  78.456743  41.488202  34.534588  77.217957  47.339571  58.513265  78.276551  25.184554  39.587905  78.162596  42.879182  41.323596  78.357564  40.536821  40.878038  78.477797  41.054522  42.826164  78.438124  39.596307  50.361210  79.526897  32.276614  48.676893  78.166350  32.023915  75.079568  75.541203   6.634139  39.075207  76.013427  45.426901  44.811691  78.707116  36.989657  32.922973  78.709005  49.748279  32.716149  81.600978  54.512516  42.078656  81.651678  37.930192  45.080247  78.755229  36.879901
  0.501291   0.498056   0.500527  47.164627  86.494114  41.999871  31.783084  79.638623  48.022290  55.944970  78.580224  28.661589  40.755557  78.312910  40.570460  41.313713  78.071619  40.321554  32.922780  77.049043  48.570432  59.041481  77.975239  24.848502  39.007019  77.845103  43.041802  40.918607  78.156471  40.607774  40.689488  78.096621  41.031555  44.341275  78.032283  37.874125  48.339548  78.509722  34.624820  48.223642  77.981913  32.250683  75.245208  74.874558   6.696043  39.021590  75.293010  45.466697  44.535960  78.165037  37.379038  32.901920  78.250037  49.962710  31.359161  81.514546  55.616448  42.440217  81.511282  37.155907  44.817612  78.447605  37.177242
  0.502125   0.502415   0.502168  45.085245  85.770008  43.321099  30.943751  79.792342  48.649199  55.366098  78.916072  29.360014  39.265813  78.562325  42.077623  40.710823  78.340554  40.925166  35.122098  76.977137  46.850754  59.942732  78.280099  23.750354  40.963752  78.167749  41.188713  41.566144  78.272203  40.065225  41.447762  78.227775  40.466289  42.853216  78.215025  39.674125  46.316982  78.525561  36.716445  47.641423  78.079302  33.049234  74.047007  75.720839   8.038991  39.520586  75.739614  44.798424  45.095624  78.699314  36.658029  32.231347  78.382129  50.534728  31.165917  81.544265  55.813928  43.030933  81.494593  36.397390  45.370012  78.667264  36.553416
  0.502379   0.502211   0.502557  46.214141  85.244268  40.707095  31.861226  79.558876  47.819666  57.489949  78.518941  27.741868  40.035382  78.011486  41.593153  39.867441  78.040358  41.557660  33.833757  76.612370  47.687128  59.613017  78.138586  23.985758  40.332092  78.132155  41.993175  40.998594  78.176719  40.325292  41.236751  78.098740  40.595664  43.335076  77.867943  39.126237  47.763239  78.784998  34.689237  48.041432  77.680984  32.477395  73.853521  74.974360   7.949792  38.859043  75.129740  45.611585  44.900227  78.303395  36.694307  32.788056  78.273254  49.914512  31.955338  81.205216  55.297655  40.934493  81.414485  38.314877  45.131727  78.529652  36.543899
  0.502133   0.502295   0.501473  48.493022  85.813714  40.130126  31.159342  79.752076  48.527528  54.452311  78.728326  30.278653  40.258079  78.338030  40.697633  40.328066  78.205469  41.103588  32.754776  76.757252  48.535710  61.515015  77.965512  22.573200  39.582786  77.993309  42.423930  41.192138  78.065802  40.488843  41.782086  78.181895  39.952582  43.245233  78.157709  38.985277  47.611928  78.065433  35.620557  48.855144  77.749217  31.485071  74.663934  75.082554   7.048542  39.001951  75.929830  44.922547  43.547977  78.325800  37.834305  32.614127  78.265715  50.178701  29.613255  81.480241  57.397258  42.733147  81.542572  36.535282  45.875813  78.601118  35.805684
